<svg width="186" height="410" viewBox="0 0 186 410" fill="none" xmlns="http://www.w3.org/2000/svg">
<g clip-path="url(#clip0_1377_1433)">
<path d="M185.201 122C189.601 60.4 151.201 42 130.201 42C109.201 42 72.7009 63.5 66.2008 122C61.0007 168.8 86.0341 188.833 99.2008 201C94.7008 225.5 97.201 213 92.701 278.5C88.201 344 99.201 448.5 119.201 474C139.201 499.5 182.201 476 157.701 436.5C133.201 397 126 324 126 278.5C126 220.5 124.868 237.5 130.201 201C146.701 195 180.801 183.6 185.201 122Z" fill="#D9D9D9" stroke="black"/>
<path d="M181.201 117C185.601 55.4 147.201 37 126.201 37C105.201 37 68.7009 58.5 62.2008 117C57.0007 163.8 82.0341 183.833 95.2008 196C90.7008 220.5 93.201 208 88.701 273.5C84.201 339 95.201 443.5 115.201 469C135.201 494.5 178.201 471 153.701 431.5C129.201 392 122 319 122 273.5C122 215.5 120.868 232.5 126.201 196C142.701 190 176.801 178.6 181.201 117Z" stroke="black"/>
<path d="M122 91C120.667 94.6667 118 104.5 118 114.5M102.5 91C101.167 94.6667 98.5005 104.5 98.5005 114.5" stroke="black"/>
<path d="M98.0004 126C96.5004 138.167 95.7004 162.5 104.5 162.5C113.3 162.5 115.5 138.167 115.5 126" stroke="black"/>
<path d="M89.5006 231C71.6673 229 31.6005 218.171 20.0005 186.171M20.0005 186.171C30.5002 181 29.0002 168 27.2349 161.955C25.9425 157.531 28.7349 146.5 27.2349 143.5C25.7349 140.5 19.2351 140.5 19.2351 145.5C19.2351 150.5 20.5002 160 16.5002 160C12.5002 160 -0.000176066 160.462 1.8599e-09 173.5C0.000121535 182.5 4.93217 184.549 7.7655 185.716C12.7654 187.775 13.2349 187.955 20.0005 186.171Z" stroke="black"/>
<path d="M89.5006 231C71.6673 229 31.6005 218.171 20.0005 186.171M20.0005 186.171C30.5002 181 29.0002 168 27.2349 161.955C25.9425 157.531 28.7349 146.5 27.2349 143.5C25.7349 140.5 19.2351 140.5 19.2351 145.5C19.2351 150.5 20.5002 160 16.5002 160C12.5002 160 -0.000176066 160.462 1.8599e-09 173.5C0.000121535 182.5 4.93217 184.549 7.7655 185.716C12.7654 187.775 13.2349 187.955 20.0005 186.171ZM23.5007 188.126C34.0005 182.955 32.5005 169.955 30.7351 163.911C29.4427 159.486 32.2351 148.455 30.7351 145.455C29.2351 142.455 22.7353 142.455 22.7353 147.455C22.7353 152.455 24.0005 161.955 20.0005 161.955C16.0005 161.955 3.50004 162.417 3.50021 175.455C3.50034 184.455 8.43238 186.505 11.2657 187.671C16.2656 189.73 16.7351 189.911 23.5007 188.126Z" stroke="black"/>
<path d="M165.5 73C170.5 85 177.5 115.9 165.5 143.5" stroke="white" stroke-width="4" stroke-linecap="round"/>
<path d="M161 152.5C160.167 155.5 157.5 160 154.5 162" stroke="white" stroke-width="4" stroke-linecap="round"/>
<path d="M68.4954 13.1582V14.2383C68.4954 15.3252 68.4954 16.4941 68.222 18.0391H69.7943V19.4062H64.9681V20.9102H63.2454V19.4062H58.4193V18.0391H66.4446C66.5335 17.5605 66.6087 17.1162 66.6497 16.6992L59.7044 17.0137L59.513 15.6055L66.7454 15.4551C66.7523 15.1475 66.7591 14.8535 66.7591 14.5664H59.8548V13.1582H68.4954ZM61.5364 20.2949V21.4434H66.6907V20.2949H68.4407V25.1211H59.8275V20.2949H61.5364ZM61.5364 23.7266H66.6907V22.7832H61.5364V23.7266ZM80.6979 12.8164V25.2852H78.9342V12.8164H80.6979ZM73.9439 13.6914C75.817 13.6914 77.2115 15.4141 77.2115 18.1211C77.2115 20.8555 75.817 22.5645 73.9439 22.5645C72.0299 22.5645 70.6354 20.8555 70.649 18.1211C70.6354 15.4141 72.0299 13.6914 73.9439 13.6914ZM73.9439 15.2637C72.9732 15.2637 72.3307 16.2754 72.3307 18.1211C72.3307 19.9805 72.9732 20.9785 73.9439 20.9785C74.8873 20.9785 75.5299 19.9805 75.5299 18.1211C75.5299 16.2754 74.8873 15.2637 73.9439 15.2637ZM96.4347 22.373V23.8086H85.0461V22.373H87.589V19.3242C86.6252 18.75 86.0441 17.8682 86.0441 16.7676C86.0441 14.7578 88.0129 13.418 90.7199 13.418C93.4132 13.418 95.3957 14.7578 95.4093 16.7676C95.4025 17.8408 94.8351 18.7158 93.9054 19.2969V22.373H96.4347ZM90.7199 14.7988C88.9425 14.7988 87.7668 15.5098 87.7668 16.7676C87.7668 17.9844 88.9425 18.7363 90.7199 18.7363C92.4836 18.7363 93.673 17.9844 93.6867 16.7676C93.673 15.5098 92.4836 14.7988 90.7199 14.7988ZM89.3117 22.373H92.1418V19.9531C91.6974 20.042 91.2189 20.0898 90.7199 20.0898C90.2209 20.0898 89.7492 20.0488 89.3117 19.9531V22.373ZM108.35 14.457V15.8652H106.737V17.1367H108.35V18.5859H106.737V20.1582H104.987V12.8164H106.737V14.457H108.35ZM106.737 20.6504V25.2578H104.987V22.0586H98.3559V20.6504H106.737ZM100.366 13.5C102.293 13.4863 103.756 14.7715 103.756 16.5215C103.756 18.3125 102.293 19.5703 100.366 19.5703C98.4243 19.5703 96.9477 18.3125 96.9477 16.5215C96.9477 14.7715 98.4243 13.4863 100.366 13.5ZM100.366 14.9902C99.3813 14.9902 98.6567 15.5508 98.6704 16.5215C98.6567 17.5195 99.3813 18.0938 100.366 18.0938C101.323 18.0938 102.047 17.5195 102.061 16.5215C102.047 15.5508 101.323 14.9902 100.366 14.9902ZM114.687 14.7168V16.0977H108.672V14.7168H110.832V13.1582H112.554V14.7168H114.687ZM111.707 16.6582C113.293 16.6582 114.427 17.8887 114.441 19.6113C114.427 21.3477 113.293 22.5781 111.707 22.5781C110.121 22.5781 108.959 21.3477 108.959 19.6113C108.959 17.8887 110.121 16.6582 111.707 16.6582ZM111.707 18.1074C110.982 18.1074 110.49 18.668 110.49 19.6113C110.49 20.5547 110.982 21.1016 111.707 21.1016C112.404 21.1016 112.896 20.5547 112.91 19.6113C112.896 18.668 112.404 18.1074 111.707 18.1074ZM119.445 12.8164V25.2578H117.791V19.2695H116.779V24.7246H115.152V13.0625H116.779V17.875H117.791V12.8164H119.445ZM131.853 17.7656V19.1328H127.04V19.9395H130.472V23.125H123.54V23.8633H130.8V25.1758H121.831V21.9082H128.749V21.2383H121.817V19.9395H125.304V19.1328H120.505V17.7656H131.853ZM130.827 13.1719V14.5117H127.341C127.751 15.2637 129.057 15.9541 131.36 16.1113L130.813 17.4238C128.51 17.2529 126.917 16.5283 126.165 15.4824C125.42 16.5215 123.841 17.2529 121.558 17.4238L121.011 16.1113C123.301 15.9541 124.593 15.2705 125.003 14.5117H121.544V13.1719H130.827ZM143.112 12.8164V25.2578H141.471V12.8164H143.112ZM140.459 13.0898V24.7109H138.832V18.9961H136.795C136.084 20.418 134.929 21.6484 133.158 22.6738L132.174 21.4434C134.683 19.9531 135.79 18.1416 136.03 15.7012H132.858V14.293H137.766C137.759 15.4756 137.636 16.5898 137.342 17.6152H138.832V13.0898H140.459ZM155.533 22.373V23.8086H144.144V22.373H146.687V19.3242C145.723 18.75 145.142 17.8682 145.142 16.7676C145.142 14.7578 147.111 13.418 149.818 13.418C152.511 13.418 154.494 14.7578 154.507 16.7676C154.501 17.8408 153.933 18.7158 153.003 19.2969V22.373H155.533ZM149.818 14.7988C148.041 14.7988 146.865 15.5098 146.865 16.7676C146.865 17.9844 148.041 18.7363 149.818 18.7363C151.582 18.7363 152.771 17.9844 152.785 16.7676C152.771 15.5098 151.582 14.7988 149.818 14.7988ZM148.41 22.373H151.24V19.9531C150.795 20.042 150.317 20.0898 149.818 20.0898C149.319 20.0898 148.847 20.0488 148.41 19.9531V22.373ZM161.699 14.1016L160.524 17.998H159.074L159.758 14.1016H161.699ZM167.503 20.8418V16.5762H169.527V24H167.585V22.6602H167.503C167.162 23.5215 166.369 24.0957 165.247 24.0957C163.757 24.0957 162.746 23.043 162.746 21.3066V16.5762H164.769V20.9512C164.769 21.8262 165.275 22.3867 166.068 22.3867C166.806 22.3867 167.503 21.8535 167.503 20.8418ZM173.376 14.1016L172.2 17.998H170.751L171.434 14.1016H173.376Z" fill="black"/>
</g>
<defs>
<clipPath id="clip0_1377_1433">
<rect width="186" height="410" fill="white"/>
</clipPath>
</defs>
</svg>
